# xmcd
#
# Track frame offsets: 
#        150
#        14878
#        30232
#        47026
#        63966
#        73654
#        92351
#        99348
#        111377
#        122598
#        130501
#        138818
#        150466
#        158671
#        169883
#        182400
#        200448
#        220999
#        239045
#
# Disc length: 3366 seconds
#
# Revision: 0
# Processed by: cddbd v1.5.2PL0 Copyright (c) Steve Scherf et al.
# Submitted via: ExactAudioCopyFreeDBPlugin 1.0
#
DISCID=fb0d2413
DTITLE=Kevin Costner, Modern West - Famous For Killing Each Other (Mus
DTITLE=ic From And Inspired By Hatfields McCoys)
DYEAR=2012
DGENRE=Country
TTITLE0=Park Chisolm, Richard Medek, Larry Cobb - Hammer And Guns  
TTITLE1=Kevin Costner, Matt Combs, Teddy Morgan - How Deep The Water R
TTITLE1=uns
TTITLE2=Teddy Morgan, Carl Broemel - Late Dobro 
TTITLE3=Sara Beck, Matt Combs, Teddy Morgan - I Know These Hills
TTITLE4=Park Chisolm, Larry Cobb - River Runs Red
TTITLE5=Kevin Costner, John Coinman, Matt Combs, Richard Medek, Teddy 
TTITLE5=Morgan - I Look To No One
TTITLE6=Teddy Morgan, Richard Medek - Hypnotic Heartbeats
TTITLE7=Kevin Costner, Park Chisolm, Teddy Morgan - The Old Oak Tree 
TTITLE8=Teddy Morgan, Richard Medek - I Will Lay You Down
TTITLE9=John Debney, Gabe Witcher, Ben Peeler - Night Riders
TTITLE10=Lily Costner, Teddy Morgan, Matt Combs - Oh, Malley-Mae
TTITLE11=Park Chisolm - Cold Dark Morning
TTITLE12=Teddy Morgan, Carl Broemel, Matt Combs - Intense 
TTITLE13=Park Chisolm, Teddy Morgan - Killing Season
TTITLE14=Teddy Morgan - Lillie Dreams 
TTITLE15=John Coinman, Kevin Costner, Carl Broemel - Famous For Killin
TTITLE15=g Each Other
TTITLE16=Kevin Costner, Park Chisolm, Teddy Morgan, Larry Cobb, Blair 
TTITLE16=Forward - Peace In The Valley 
TTITLE17=Teddy Morgan, Matt Combs - Ominous
TTITLE18=Kevin Costner, John Coinman, Lily Costner, Teddy Morgan, Matt
TTITLE18=Combs  - Devil's A Long Way From Home
EXTD=
EXTT0=
EXTT1=
EXTT2=
EXTT3=
EXTT4=
EXTT5=
EXTT6=
EXTT7=
EXTT8=
EXTT9=
EXTT10=
EXTT11=
EXTT12=
EXTT13=
EXTT14=
EXTT15=
EXTT16=
EXTT17=
EXTT18=
PLAYORDER=
